<mxfile host="65bd71144e" scale="2" border="0">
    <diagram id="0QhtwqMjpmc_AO-MrRb4" name="第 1 页">
        <mxGraphModel dx="1502" dy="863" grid="1" gridSize="10" guides="1" tooltips="1" connect="1" arrows="1" fold="1" page="1" pageScale="1" pageWidth="1654" pageHeight="2336" math="0" shadow="0">
            <root>
                <mxCell id="0"/>
                <mxCell id="1" parent="0"/>
                <mxCell id="281" value="" style="rounded=1;whiteSpace=wrap;html=1;fontFamily=Tahoma;fontSize=12;fontColor=#345253;strokeWidth=2;fillColor=#EDF2F4;strokeColor=none;" vertex="1" parent="1">
                    <mxGeometry x="775" y="100" width="110" height="190" as="geometry"/>
                </mxCell>
                <mxCell id="282" value="&lt;font color=&quot;#ffffff&quot;&gt;Partition 01&lt;/font&gt;" style="rounded=1;whiteSpace=wrap;html=1;fontFamily=Tahoma;fontSize=12;fontColor=#345253;strokeWidth=2;fillColor=#345253;strokeColor=none;" vertex="1" parent="1">
                    <mxGeometry x="790" y="115" width="80" height="40" as="geometry"/>
                </mxCell>
                <mxCell id="283" value="&lt;font color=&quot;#ffffff&quot;&gt;Partition 02&lt;/font&gt;" style="rounded=1;whiteSpace=wrap;html=1;fontFamily=Tahoma;fontSize=12;fontColor=#345253;strokeWidth=2;fillColor=#345253;strokeColor=none;" vertex="1" parent="1">
                    <mxGeometry x="790" y="175" width="80" height="40" as="geometry"/>
                </mxCell>
                <mxCell id="284" value="&lt;font color=&quot;#ffffff&quot;&gt;Partition 03&lt;/font&gt;" style="rounded=1;whiteSpace=wrap;html=1;fontFamily=Tahoma;fontSize=12;fontColor=#345253;strokeWidth=2;fillColor=#345253;strokeColor=none;" vertex="1" parent="1">
                    <mxGeometry x="790" y="235" width="80" height="40" as="geometry"/>
                </mxCell>
                <mxCell id="203" value="" style="rounded=1;whiteSpace=wrap;html=1;fontFamily=Tahoma;fontSize=12;fontColor=#345253;strokeWidth=2;fillColor=#EDF2F4;strokeColor=none;" parent="1" vertex="1">
                    <mxGeometry x="268" y="100" width="110" height="190" as="geometry"/>
                </mxCell>
                <mxCell id="192" value="" style="rounded=1;whiteSpace=wrap;html=1;fontFamily=Tahoma;fontSize=12;fontColor=#345253;strokeWidth=2;fillColor=#EDF2F4;strokeColor=none;" parent="1" vertex="1">
                    <mxGeometry x="88" y="40" width="110" height="310" as="geometry"/>
                </mxCell>
                <mxCell id="285" style="rounded=0;orthogonalLoop=1;jettySize=auto;html=1;entryX=0;entryY=0.5;entryDx=0;entryDy=0;strokeColor=#999999;exitX=1;exitY=0.5;exitDx=0;exitDy=0;endArrow=oval;endFill=1;" edge="1" parent="1" source="193" target="198">
                    <mxGeometry relative="1" as="geometry"/>
                </mxCell>
                <mxCell id="286" style="edgeStyle=none;rounded=0;orthogonalLoop=1;jettySize=auto;html=1;exitX=1;exitY=0.5;exitDx=0;exitDy=0;entryX=0;entryY=0.5;entryDx=0;entryDy=0;strokeColor=#999999;endArrow=oval;endFill=1;" edge="1" parent="1" source="193" target="199">
                    <mxGeometry relative="1" as="geometry"/>
                </mxCell>
                <mxCell id="287" style="edgeStyle=none;rounded=0;orthogonalLoop=1;jettySize=auto;html=1;exitX=1;exitY=0.5;exitDx=0;exitDy=0;entryX=0;entryY=0.5;entryDx=0;entryDy=0;strokeColor=#999999;endArrow=oval;endFill=1;" edge="1" parent="1" source="193" target="200">
                    <mxGeometry relative="1" as="geometry"/>
                </mxCell>
                <mxCell id="193" value="&lt;font color=&quot;#ffffff&quot;&gt;Partition 01&lt;/font&gt;" style="rounded=1;whiteSpace=wrap;html=1;fontFamily=Tahoma;fontSize=12;fontColor=#345253;strokeWidth=2;fillColor=#345253;strokeColor=none;" parent="1" vertex="1">
                    <mxGeometry x="103" y="55" width="80" height="40" as="geometry"/>
                </mxCell>
                <mxCell id="288" style="edgeStyle=none;rounded=0;orthogonalLoop=1;jettySize=auto;html=1;exitX=1;exitY=0.5;exitDx=0;exitDy=0;entryX=0;entryY=0.5;entryDx=0;entryDy=0;strokeColor=#999999;endArrow=oval;endFill=1;" edge="1" parent="1" source="194" target="198">
                    <mxGeometry relative="1" as="geometry"/>
                </mxCell>
                <mxCell id="289" style="edgeStyle=none;rounded=0;orthogonalLoop=1;jettySize=auto;html=1;exitX=1;exitY=0.5;exitDx=0;exitDy=0;entryX=0;entryY=0.5;entryDx=0;entryDy=0;strokeColor=#999999;endArrow=oval;endFill=1;" edge="1" parent="1" source="194" target="199">
                    <mxGeometry relative="1" as="geometry"/>
                </mxCell>
                <mxCell id="290" style="edgeStyle=none;rounded=0;orthogonalLoop=1;jettySize=auto;html=1;exitX=1;exitY=0.5;exitDx=0;exitDy=0;entryX=0;entryY=0.5;entryDx=0;entryDy=0;strokeColor=#999999;endArrow=oval;endFill=1;" edge="1" parent="1" source="194" target="200">
                    <mxGeometry relative="1" as="geometry"/>
                </mxCell>
                <mxCell id="194" value="&lt;font color=&quot;#ffffff&quot;&gt;Partition 02&lt;/font&gt;" style="rounded=1;whiteSpace=wrap;html=1;fontFamily=Tahoma;fontSize=12;fontColor=#345253;strokeWidth=2;fillColor=#345253;strokeColor=none;" parent="1" vertex="1">
                    <mxGeometry x="103" y="115" width="80" height="40" as="geometry"/>
                </mxCell>
                <mxCell id="291" style="edgeStyle=none;rounded=0;orthogonalLoop=1;jettySize=auto;html=1;exitX=1;exitY=0.5;exitDx=0;exitDy=0;entryX=0;entryY=0.5;entryDx=0;entryDy=0;strokeColor=#999999;endArrow=oval;endFill=1;" edge="1" parent="1" source="195" target="198">
                    <mxGeometry relative="1" as="geometry"/>
                </mxCell>
                <mxCell id="292" style="edgeStyle=none;rounded=0;orthogonalLoop=1;jettySize=auto;html=1;exitX=1;exitY=0.5;exitDx=0;exitDy=0;entryX=0;entryY=0.5;entryDx=0;entryDy=0;strokeColor=#999999;endArrow=oval;endFill=1;" edge="1" parent="1" source="195" target="199">
                    <mxGeometry relative="1" as="geometry"/>
                </mxCell>
                <mxCell id="293" style="edgeStyle=none;rounded=0;orthogonalLoop=1;jettySize=auto;html=1;exitX=1;exitY=0.5;exitDx=0;exitDy=0;entryX=0;entryY=0.5;entryDx=0;entryDy=0;strokeColor=#999999;endArrow=oval;endFill=1;" edge="1" parent="1" source="195" target="200">
                    <mxGeometry relative="1" as="geometry"/>
                </mxCell>
                <mxCell id="195" value="&lt;font color=&quot;#ffffff&quot;&gt;Partition 03&lt;/font&gt;" style="rounded=1;whiteSpace=wrap;html=1;fontFamily=Tahoma;fontSize=12;fontColor=#345253;strokeWidth=2;fillColor=#345253;strokeColor=none;" parent="1" vertex="1">
                    <mxGeometry x="103" y="175" width="80" height="40" as="geometry"/>
                </mxCell>
                <mxCell id="198" value="&lt;font color=&quot;#ffffff&quot;&gt;Partition 01&lt;/font&gt;" style="rounded=1;whiteSpace=wrap;html=1;fontFamily=Tahoma;fontSize=12;fontColor=#345253;strokeWidth=2;fillColor=#345253;strokeColor=none;" parent="1" vertex="1">
                    <mxGeometry x="283" y="115" width="80" height="40" as="geometry"/>
                </mxCell>
                <mxCell id="199" value="&lt;font color=&quot;#ffffff&quot;&gt;Partition 02&lt;/font&gt;" style="rounded=1;whiteSpace=wrap;html=1;fontFamily=Tahoma;fontSize=12;fontColor=#345253;strokeWidth=2;fillColor=#345253;strokeColor=none;" parent="1" vertex="1">
                    <mxGeometry x="283" y="175" width="80" height="40" as="geometry"/>
                </mxCell>
                <mxCell id="200" value="&lt;font color=&quot;#ffffff&quot;&gt;Partition 03&lt;/font&gt;" style="rounded=1;whiteSpace=wrap;html=1;fontFamily=Tahoma;fontSize=12;fontColor=#345253;strokeWidth=2;fillColor=#345253;strokeColor=none;" parent="1" vertex="1">
                    <mxGeometry x="283" y="235" width="80" height="40" as="geometry"/>
                </mxCell>
                <mxCell id="202" value="groupByKey" style="text;html=1;strokeColor=none;fillColor=none;align=center;verticalAlign=middle;whiteSpace=wrap;rounded=0;fontFamily=Tahoma;fontSize=14;fontColor=#345253;fontStyle=2" parent="1" vertex="1">
                    <mxGeometry x="198" y="370" width="70" height="20" as="geometry"/>
                </mxCell>
                <mxCell id="208" value="" style="rounded=1;whiteSpace=wrap;html=1;fontFamily=Tahoma;fontSize=12;fontColor=#345253;strokeWidth=2;fillColor=#EDF2F4;strokeColor=none;" parent="1" vertex="1">
                    <mxGeometry x="592" y="40" width="110" height="140" as="geometry"/>
                </mxCell>
                <mxCell id="300" style="edgeStyle=none;rounded=0;orthogonalLoop=1;jettySize=auto;html=1;exitX=1;exitY=0.5;exitDx=0;exitDy=0;entryX=0;entryY=0.5;entryDx=0;entryDy=0;endArrow=oval;endFill=1;strokeColor=#999999;" edge="1" parent="1" source="210" target="282">
                    <mxGeometry relative="1" as="geometry"/>
                </mxCell>
                <mxCell id="301" style="edgeStyle=none;rounded=0;orthogonalLoop=1;jettySize=auto;html=1;exitX=1;exitY=0.5;exitDx=0;exitDy=0;entryX=0;entryY=0.5;entryDx=0;entryDy=0;endArrow=oval;endFill=1;strokeColor=#999999;" edge="1" parent="1" source="210" target="283">
                    <mxGeometry relative="1" as="geometry"/>
                </mxCell>
                <mxCell id="302" style="edgeStyle=none;rounded=0;orthogonalLoop=1;jettySize=auto;html=1;exitX=1;exitY=0.5;exitDx=0;exitDy=0;entryX=0;entryY=0.5;entryDx=0;entryDy=0;endArrow=oval;endFill=1;strokeColor=#999999;" edge="1" parent="1" source="210" target="284">
                    <mxGeometry relative="1" as="geometry"/>
                </mxCell>
                <mxCell id="210" value="&lt;font color=&quot;#ffffff&quot;&gt;Partition 01&lt;/font&gt;" style="rounded=1;whiteSpace=wrap;html=1;fontFamily=Tahoma;fontSize=12;fontColor=#345253;strokeWidth=2;fillColor=#345253;strokeColor=none;" parent="1" vertex="1">
                    <mxGeometry x="607" y="60" width="80" height="40" as="geometry"/>
                </mxCell>
                <mxCell id="303" style="edgeStyle=none;rounded=0;orthogonalLoop=1;jettySize=auto;html=1;exitX=1;exitY=0.5;exitDx=0;exitDy=0;endArrow=oval;endFill=1;strokeColor=#999999;" edge="1" parent="1" source="212" target="282">
                    <mxGeometry relative="1" as="geometry"/>
                </mxCell>
                <mxCell id="304" style="edgeStyle=none;rounded=0;orthogonalLoop=1;jettySize=auto;html=1;exitX=1;exitY=0.5;exitDx=0;exitDy=0;entryX=0;entryY=0.5;entryDx=0;entryDy=0;endArrow=oval;endFill=1;strokeColor=#999999;" edge="1" parent="1" source="212" target="283">
                    <mxGeometry relative="1" as="geometry"/>
                </mxCell>
                <mxCell id="305" style="edgeStyle=none;rounded=0;orthogonalLoop=1;jettySize=auto;html=1;exitX=1;exitY=0.5;exitDx=0;exitDy=0;entryX=0;entryY=0.5;entryDx=0;entryDy=0;endArrow=oval;endFill=1;strokeColor=#999999;" edge="1" parent="1" source="212" target="284">
                    <mxGeometry relative="1" as="geometry"/>
                </mxCell>
                <mxCell id="212" value="&lt;font color=&quot;#ffffff&quot;&gt;Partition 02&lt;/font&gt;" style="rounded=1;whiteSpace=wrap;html=1;fontFamily=Tahoma;fontSize=12;fontColor=#345253;strokeWidth=2;fillColor=#345253;strokeColor=none;" parent="1" vertex="1">
                    <mxGeometry x="607" y="120" width="80" height="40" as="geometry"/>
                </mxCell>
                <mxCell id="221" value="" style="rounded=1;whiteSpace=wrap;html=1;fontFamily=Tahoma;fontSize=12;fontColor=#345253;strokeWidth=2;fillColor=#EDF2F4;strokeColor=none;" parent="1" vertex="1">
                    <mxGeometry x="592" y="210" width="110" height="140" as="geometry"/>
                </mxCell>
                <mxCell id="306" style="edgeStyle=none;rounded=0;orthogonalLoop=1;jettySize=auto;html=1;exitX=1;exitY=0.5;exitDx=0;exitDy=0;entryX=0;entryY=0.5;entryDx=0;entryDy=0;endArrow=oval;endFill=1;strokeColor=#999999;" edge="1" parent="1" source="222" target="282">
                    <mxGeometry relative="1" as="geometry"/>
                </mxCell>
                <mxCell id="307" style="edgeStyle=none;rounded=0;orthogonalLoop=1;jettySize=auto;html=1;exitX=1;exitY=0.5;exitDx=0;exitDy=0;entryX=0;entryY=0.5;entryDx=0;entryDy=0;endArrow=oval;endFill=1;strokeColor=#999999;" edge="1" parent="1" source="222" target="283">
                    <mxGeometry relative="1" as="geometry"/>
                </mxCell>
                <mxCell id="308" style="edgeStyle=none;rounded=0;orthogonalLoop=1;jettySize=auto;html=1;exitX=1;exitY=0.5;exitDx=0;exitDy=0;entryX=0;entryY=0.5;entryDx=0;entryDy=0;endArrow=oval;endFill=1;strokeColor=#999999;" edge="1" parent="1" source="222" target="284">
                    <mxGeometry relative="1" as="geometry"/>
                </mxCell>
                <mxCell id="222" value="&lt;font color=&quot;#ffffff&quot;&gt;Partition 01&lt;/font&gt;" style="rounded=1;whiteSpace=wrap;html=1;fontFamily=Tahoma;fontSize=12;fontColor=#345253;strokeWidth=2;fillColor=#345253;strokeColor=none;" parent="1" vertex="1">
                    <mxGeometry x="607" y="230" width="80" height="40" as="geometry"/>
                </mxCell>
                <mxCell id="309" style="edgeStyle=none;rounded=0;orthogonalLoop=1;jettySize=auto;html=1;exitX=1;exitY=0.5;exitDx=0;exitDy=0;entryX=0;entryY=0.5;entryDx=0;entryDy=0;endArrow=oval;endFill=1;strokeColor=#999999;" edge="1" parent="1" source="223" target="282">
                    <mxGeometry relative="1" as="geometry"/>
                </mxCell>
                <mxCell id="310" style="edgeStyle=none;rounded=0;orthogonalLoop=1;jettySize=auto;html=1;exitX=1;exitY=0.5;exitDx=0;exitDy=0;entryX=0;entryY=0.5;entryDx=0;entryDy=0;endArrow=oval;endFill=1;strokeColor=#999999;" edge="1" parent="1" source="223" target="283">
                    <mxGeometry relative="1" as="geometry"/>
                </mxCell>
                <mxCell id="312" style="edgeStyle=none;rounded=0;orthogonalLoop=1;jettySize=auto;html=1;exitX=1;exitY=0.5;exitDx=0;exitDy=0;entryX=0;entryY=0.5;entryDx=0;entryDy=0;endArrow=oval;endFill=1;strokeColor=#999999;" edge="1" parent="1" source="223" target="284">
                    <mxGeometry relative="1" as="geometry"/>
                </mxCell>
                <mxCell id="223" value="&lt;font color=&quot;#ffffff&quot;&gt;Partition 02&lt;/font&gt;" style="rounded=1;whiteSpace=wrap;html=1;fontFamily=Tahoma;fontSize=12;fontColor=#345253;strokeWidth=2;fillColor=#345253;strokeColor=none;" parent="1" vertex="1">
                    <mxGeometry x="607" y="290" width="80" height="40" as="geometry"/>
                </mxCell>
                <mxCell id="230" value="join with&lt;br&gt;inputs not co-partitioned" style="text;html=1;strokeColor=none;fillColor=none;align=center;verticalAlign=middle;whiteSpace=wrap;rounded=0;fontFamily=Tahoma;fontSize=14;fontColor=#345253;fontStyle=2" parent="1" vertex="1">
                    <mxGeometry x="654" y="350" width="168" height="40" as="geometry"/>
                </mxCell>
                <mxCell id="258" value="&lt;b&gt;&lt;i&gt;RDD B&lt;/i&gt;&lt;/b&gt;" style="text;html=1;strokeColor=none;fillColor=none;align=center;verticalAlign=middle;whiteSpace=wrap;rounded=0;fontFamily=Tahoma;fontSize=14;fontColor=#345253;" parent="1" vertex="1">
                    <mxGeometry x="386" y="185" width="50" height="20" as="geometry"/>
                </mxCell>
                <mxCell id="259" value="&lt;b&gt;&lt;i&gt;RDD E&lt;/i&gt;&lt;/b&gt;" style="text;html=1;strokeColor=none;fillColor=none;align=center;verticalAlign=middle;whiteSpace=wrap;rounded=0;fontFamily=Tahoma;fontSize=14;fontColor=#345253;" parent="1" vertex="1">
                    <mxGeometry x="890" y="185" width="50" height="20" as="geometry"/>
                </mxCell>
                <mxCell id="263" value="&lt;b&gt;&lt;i&gt;RDD A&lt;/i&gt;&lt;/b&gt;" style="text;html=1;strokeColor=none;fillColor=none;align=center;verticalAlign=middle;whiteSpace=wrap;rounded=0;fontFamily=Tahoma;fontSize=14;fontColor=#345253;" parent="1" vertex="1">
                    <mxGeometry x="26" y="185" width="50" height="20" as="geometry"/>
                </mxCell>
                <mxCell id="264" value="&lt;b&gt;&lt;i&gt;RDD C&lt;/i&gt;&lt;/b&gt;" style="text;html=1;strokeColor=none;fillColor=none;align=center;verticalAlign=middle;whiteSpace=wrap;rounded=0;fontFamily=Tahoma;fontSize=14;fontColor=#345253;" parent="1" vertex="1">
                    <mxGeometry x="530" y="100" width="50" height="20" as="geometry"/>
                </mxCell>
                <mxCell id="265" value="&lt;b&gt;&lt;i&gt;RDD D&lt;/i&gt;&lt;/b&gt;" style="text;html=1;strokeColor=none;fillColor=none;align=center;verticalAlign=middle;whiteSpace=wrap;rounded=0;fontFamily=Tahoma;fontSize=14;fontColor=#345253;" parent="1" vertex="1">
                    <mxGeometry x="530" y="270" width="50" height="20" as="geometry"/>
                </mxCell>
                <mxCell id="294" style="edgeStyle=none;rounded=0;orthogonalLoop=1;jettySize=auto;html=1;exitX=1;exitY=0.5;exitDx=0;exitDy=0;entryX=0;entryY=0.5;entryDx=0;entryDy=0;strokeColor=#999999;endArrow=oval;endFill=1;" edge="1" parent="1" source="266" target="198">
                    <mxGeometry relative="1" as="geometry"/>
                </mxCell>
                <mxCell id="295" style="edgeStyle=none;rounded=0;orthogonalLoop=1;jettySize=auto;html=1;exitX=1;exitY=0.5;exitDx=0;exitDy=0;entryX=0;entryY=0.5;entryDx=0;entryDy=0;strokeColor=#999999;endArrow=oval;endFill=1;" edge="1" parent="1" source="266" target="199">
                    <mxGeometry relative="1" as="geometry"/>
                </mxCell>
                <mxCell id="296" style="edgeStyle=none;rounded=0;orthogonalLoop=1;jettySize=auto;html=1;exitX=1;exitY=0.5;exitDx=0;exitDy=0;entryX=0;entryY=0.5;entryDx=0;entryDy=0;strokeColor=#999999;endArrow=oval;endFill=1;" edge="1" parent="1" source="266" target="200">
                    <mxGeometry relative="1" as="geometry"/>
                </mxCell>
                <mxCell id="266" value="&lt;font color=&quot;#ffffff&quot;&gt;Partition 04&lt;/font&gt;" style="rounded=1;whiteSpace=wrap;html=1;fontFamily=Tahoma;fontSize=12;fontColor=#345253;strokeWidth=2;fillColor=#345253;strokeColor=none;" vertex="1" parent="1">
                    <mxGeometry x="103" y="235" width="80" height="40" as="geometry"/>
                </mxCell>
                <mxCell id="297" style="edgeStyle=none;rounded=0;orthogonalLoop=1;jettySize=auto;html=1;exitX=1;exitY=0.5;exitDx=0;exitDy=0;entryX=0;entryY=0.5;entryDx=0;entryDy=0;strokeColor=#999999;endArrow=oval;endFill=1;" edge="1" parent="1" source="267" target="198">
                    <mxGeometry relative="1" as="geometry"/>
                </mxCell>
                <mxCell id="298" style="edgeStyle=none;rounded=0;orthogonalLoop=1;jettySize=auto;html=1;exitX=1;exitY=0.5;exitDx=0;exitDy=0;entryX=0;entryY=0.5;entryDx=0;entryDy=0;strokeColor=#999999;endArrow=oval;endFill=1;" edge="1" parent="1" source="267" target="199">
                    <mxGeometry relative="1" as="geometry"/>
                </mxCell>
                <mxCell id="299" style="edgeStyle=none;rounded=0;orthogonalLoop=1;jettySize=auto;html=1;exitX=1;exitY=0.5;exitDx=0;exitDy=0;entryX=0;entryY=0.5;entryDx=0;entryDy=0;strokeColor=#999999;endArrow=oval;endFill=1;" edge="1" parent="1" source="267" target="200">
                    <mxGeometry relative="1" as="geometry"/>
                </mxCell>
                <mxCell id="267" value="&lt;font color=&quot;#ffffff&quot;&gt;Partition 05&lt;/font&gt;" style="rounded=1;whiteSpace=wrap;html=1;fontFamily=Tahoma;fontSize=12;fontColor=#345253;strokeWidth=2;fillColor=#345253;strokeColor=none;" vertex="1" parent="1">
                    <mxGeometry x="103" y="295" width="80" height="40" as="geometry"/>
                </mxCell>
            </root>
        </mxGraphModel>
    </diagram>
</mxfile>